<svg version="1.1" class="highcharts-root" style="font-family: -apple-system, BlinkMacSystemFont, &quot;Segoe UI&quot;, Roboto, Helvetica, Arial, &quot;Apple Color Emoji&quot;, &quot;Segoe UI Emoji&quot;, &quot;Segoe UI Symbol&quot;, sans-serif; font-size: 1rem;" xmlns="http://www.w3.org/2000/svg" width="600" height="400" viewBox="0 0 600 400" aria-hidden="false" aria-label="Interactive chart"><desc aria-hidden="true">Created with Highcharts 12.3.0</desc><defs aria-hidden="true"><filter id="highcharts-drop-shadow-0"><feDropShadow dx="1" dy="1" flood-color="#000000" flood-opacity="0.75" stdDeviation="2.5"></feDropShadow></filter><clipPath id="highcharts-kejuiny-28-"><rect x="0" y="0" width="238" height="498" fill="none"></rect></clipPath><filter id="highcharts-drop-shadow-0-offsetx--1-offsety--1"><feDropShadow dx="-1" dy="-1" flood-color="#000000" flood-opacity="0.75" stdDeviation="2.5"></feDropShadow></filter></defs><rect fill="#ffffff" class="highcharts-background" filter="none" x="0" y="0" width="600" height="400" rx="0" ry="0" aria-hidden="true"></rect><rect fill="none" class="highcharts-plot-background" x="91" y="51" width="499" height="238" filter="none" aria-hidden="true"></rect><g class="highcharts-pane-group" data-z-index="0" aria-hidden="true"></g><g class="highcharts-grid highcharts-yaxis-grid" data-z-index="1" aria-hidden="true"><path fill="none" stroke="#e6e6e6" stroke-width="1" stroke-dasharray="none" data-z-index="1" class="highcharts-grid-line" d="M 91.5 51 L 91.5 289" opacity="1"></path><path fill="none" stroke="#e6e6e6" stroke-width="1" stroke-dasharray="none" data-z-index="1" class="highcharts-grid-line" d="M 174.5 51 L 174.5 289" opacity="1"></path><path fill="none" stroke="#e6e6e6" stroke-width="1" stroke-dasharray="none" data-z-index="1" class="highcharts-grid-line" d="M 257.5 51 L 257.5 289" opacity="1"></path><path fill="none" stroke="#e6e6e6" stroke-width="1" stroke-dasharray="none" data-z-index="1" class="highcharts-grid-line" d="M 341.5 51 L 341.5 289" opacity="1"></path><path fill="none" stroke="#e6e6e6" stroke-width="1" stroke-dasharray="none" data-z-index="1" class="highcharts-grid-line" d="M 424.5 51 L 424.5 289" opacity="1"></path><path fill="none" stroke="#e6e6e6" stroke-width="1" stroke-dasharray="none" data-z-index="1" class="highcharts-grid-line" d="M 507.5 51 L 507.5 289" opacity="1"></path><path fill="none" stroke="#e6e6e6" stroke-width="1" stroke-dasharray="none" data-z-index="1" class="highcharts-grid-line" d="M 590.5 51 L 590.5 289" opacity="1"></path></g><g class="highcharts-grid highcharts-xaxis-grid" data-z-index="1" aria-hidden="true"><path fill="none" stroke="#e6e6e6" stroke-width="0" stroke-dasharray="none" data-z-index="1" class="highcharts-grid-line" d="M 91 130.5 L 590 130.5" opacity="1"></path><path fill="none" stroke="#e6e6e6" stroke-width="0" stroke-dasharray="none" data-z-index="1" class="highcharts-grid-line" d="M 91 209.5 L 590 209.5" opacity="1"></path><path fill="none" stroke="#e6e6e6" stroke-width="0" stroke-dasharray="none" data-z-index="1" class="highcharts-grid-line" d="M 91 289.5 L 590 289.5" opacity="1"></path><path fill="none" stroke="#e6e6e6" stroke-width="0" stroke-dasharray="none" data-z-index="1" class="highcharts-grid-line" d="M 91 51.5 L 590 51.5" opacity="1"></path></g><rect fill="none" class="highcharts-plot-border" data-z-index="1" stroke="#cccccc" stroke-width="0" x="91" y="51" width="499" height="238" aria-hidden="true"></rect><g class="highcharts-axis highcharts-yaxis" data-z-index="2" aria-hidden="true"><text x="340.5" data-z-index="7" text-anchor="middle" transform="translate(0,0)" class="highcharts-axis-title" style="font-size: 0.8em; fill: rgb(102, 102, 102);" y="338">Time (seconds)</text><path fill="none" class="highcharts-axis-line" stroke="#333333" stroke-width="0" data-z-index="7" d="M 91 289 L 590 289"></path></g><g class="highcharts-axis highcharts-xaxis" data-z-index="2" aria-hidden="true"><path fill="none" class="highcharts-axis-line" stroke="#333333" stroke-width="1" data-z-index="7" d="M 91.5 51 L 91.5 289"></path></g><g class="highcharts-series-group" data-z-index="3" filter="none" aria-hidden="false"><g class="highcharts-series highcharts-series-0 highcharts-bar-series highcharts-color-0 highcharts-tracker" data-z-index="0.1" opacity="1" transform="translate(91,51) rotate(90 130.5 368.5) scale(-1 1)" clip-path="url(#highcharts-kejuiny-28-)" aria-hidden="false" role="region" tabindex="-1" aria-label="Low-end, bar series 1 of 2 with 3 bars." style="outline: none;"><path fill="#2caffe" d="M 203.5 41.5 L 217.5 41.5 A 3 3 0 0 1 220.5 44.5 L 220.5 498.5 A 0 0 0 0 1 220.5 498.5 L 200.5 498.5 A 0 0 0 0 1 200.5 498.5 L 200.5 44.5 A 3 3 0 0 1 203.5 41.5 Z" stroke="#ffffff" stroke-width="1" opacity="1" filter="none" class="highcharts-point highcharts-color-0" tabindex="-1" role="img" aria-label="r2modman, 11. Low-end." style="outline: none;"></path><path fill="#2caffe" d="M 124.5 41.5 L 138.5 41.5 A 3 3 0 0 1 141.5 44.5 L 141.5 498.5 A 0 0 0 0 1 141.5 498.5 L 121.5 498.5 A 0 0 0 0 1 121.5 498.5 L 121.5 44.5 A 3 3 0 0 1 124.5 41.5 Z" stroke="#ffffff" stroke-width="1" opacity="1" filter="none" class="highcharts-point highcharts-color-0" tabindex="-1" role="img" aria-label="Gale, 11. Low-end." style="outline: none;"></path><path fill="#2caffe" d="M 45.5 41.5 L 59.5 41.5 A 3 3 0 0 1 62.5 44.5 L 62.5 498.5 A 0 0 0 0 1 62.5 498.5 L 42.5 498.5 A 0 0 0 0 1 42.5 498.5 L 42.5 44.5 A 3 3 0 0 1 45.5 41.5 Z" stroke="#ffffff" stroke-width="1" opacity="1" filter="none" class="highcharts-point highcharts-color-0" tabindex="-1" role="img" aria-label="Manderrow, 11. Low-end." style="outline: none;"></path></g><g class="highcharts-markers highcharts-series-0 highcharts-bar-series highcharts-color-0" data-z-index="0.1" opacity="1" transform="translate(91,51) scale(1 1)" clip-path="none" aria-hidden="true"></g><g class="highcharts-series highcharts-series-1 highcharts-bar-series highcharts-color-1 highcharts-tracker" data-z-index="0.1" opacity="1" transform="translate(91,51) rotate(90 130.5 368.5) scale(-1 1)" clip-path="url(#highcharts-kejuiny-28-)" aria-hidden="false" role="region" tabindex="-1" aria-label="High-end, bar series 2 of 2 with 3 bars." style="outline: none;"><path fill="#544fc5" d="M 179.5 41.5 L 193.5 41.5 A 3 3 0 0 1 196.5 44.5 L 196.5 498.5 A 0 0 0 0 1 196.5 498.5 L 176.5 498.5 A 0 0 0 0 1 176.5 498.5 L 176.5 44.5 A 3 3 0 0 1 179.5 41.5 Z" stroke="#ffffff" stroke-width="1" opacity="1" filter="none" class="highcharts-point highcharts-color-1" tabindex="-1" role="img" aria-label="r2modman, 11. High-end." style="outline: none;"></path><path fill="#544fc5" d="M 100.5 41.5 L 114.5 41.5 A 3 3 0 0 1 117.5 44.5 L 117.5 498.5 A 0 0 0 0 1 117.5 498.5 L 97.5 498.5 A 0 0 0 0 1 97.5 498.5 L 97.5 44.5 A 3 3 0 0 1 100.5 41.5 Z" stroke="#ffffff" stroke-width="1" opacity="1" filter="none" class="highcharts-point highcharts-color-1" tabindex="-1" role="img" aria-label="Gale, 11. High-end." style="outline: none;"></path><path fill="#544fc5" d="M 21.5 41.5 L 35.5 41.5 A 3 3 0 0 1 38.5 44.5 L 38.5 498.5 A 0 0 0 0 1 38.5 498.5 L 18.5 498.5 A 0 0 0 0 1 18.5 498.5 L 18.5 44.5 A 3 3 0 0 1 21.5 41.5 Z" stroke="#ffffff" stroke-width="1" opacity="1" filter="none" class="highcharts-point highcharts-color-1" tabindex="-1" role="img" aria-label="Manderrow, 11. High-end." style="outline: none;"></path></g><g class="highcharts-markers highcharts-series-1 highcharts-bar-series highcharts-color-1" data-z-index="0.1" opacity="1" transform="translate(91,51) scale(1 1)" clip-path="none" aria-hidden="true"></g></g><text x="300" class="highcharts-title" data-z-index="4" text-align="center" y="25" text-anchor="middle" transform-origin="123.15306091308594 22" transform="translate(0,0) scale(1 1)" style="font-size: 1.2em; font-weight: bold; fill: rgb(51, 51, 51);" aria-hidden="true">Mod Index Loading Time</text><text x="300" class="highcharts-subtitle" data-z-index="4" text-align="center" y="50" text-anchor="middle" transform-origin="10 15" transform="translate(0,0) scale(1 1)" style="font-size: 0.8em; fill: rgb(102, 102, 102);" aria-hidden="true"></text><text x="10" text-anchor="start" class="highcharts-caption" data-z-index="4" style="font-size: 0.8em; fill: rgb(102, 102, 102);" text-align="left" y="397" transform-origin="10 15" transform="translate(0,0) scale(1 1)" aria-hidden="true"></text><g class="highcharts-datalabels-group" data-z-index="6" aria-hidden="true"></g><g class="highcharts-legend highcharts-no-tooltip" data-z-index="7" text-align="center" transform="translate(210,355)" aria-hidden="true"><rect fill="none" class="highcharts-legend-box" rx="0" ry="0" stroke="#999999" stroke-width="0" filter="none" x="0" y="0" width="181" height="30"></rect><g data-z-index="1"><g><g class="highcharts-legend-item highcharts-bar-series highcharts-color-0 highcharts-series-0" data-z-index="1" transform="translate(8,3)"><text x="21" text-anchor="start" data-z-index="2" style="cursor: pointer; font-size: 0.8em; text-decoration: none; fill: rgb(51, 51, 51);" y="17">Low-end</text><rect x="2" y="6" rx="6" ry="6" width="12" height="12" fill="#2caffe" class="highcharts-point" data-z-index="3"></rect></g><g class="highcharts-legend-item highcharts-bar-series highcharts-color-1 highcharts-series-1" data-z-index="1" transform="translate(98.375,3)"><text x="21" y="17" text-anchor="start" data-z-index="2" style="cursor: pointer; font-size: 0.8em; text-decoration: none; fill: rgb(51, 51, 51);">High-end</text><rect x="2" y="6" rx="6" ry="6" width="12" height="12" fill="#544fc5" class="highcharts-point" data-z-index="3"></rect></g></g></g></g><g class="highcharts-axis-labels highcharts-yaxis-labels" data-z-index="7" aria-hidden="true"><text x="91" text-anchor="middle" transform="translate(0,0)" style="cursor: default; font-size: 0.8em; fill: rgb(51, 51, 51);" y="316" opacity="1">0</text><text x="174.16666666667" text-anchor="middle" transform="translate(0,0)" style="cursor: default; font-size: 0.8em; fill: rgb(51, 51, 51);" y="316" opacity="1">2</text><text x="257.33333333333" text-anchor="middle" transform="translate(0,0)" style="cursor: default; font-size: 0.8em; fill: rgb(51, 51, 51);" y="316" opacity="1">4</text><text x="340.5" text-anchor="middle" transform="translate(0,0)" style="cursor: default; font-size: 0.8em; fill: rgb(51, 51, 51);" y="316" opacity="1">6</text><text x="423.66666666667" text-anchor="middle" transform="translate(0,0)" style="cursor: default; font-size: 0.8em; fill: rgb(51, 51, 51);" y="316" opacity="1">8</text><text x="506.83333333333" text-anchor="middle" transform="translate(0,0)" style="cursor: default; font-size: 0.8em; fill: rgb(51, 51, 51);" y="316" opacity="1">10</text><text x="583.0500030517578" text-anchor="middle" transform="translate(0,0)" style="cursor: default; font-size: 0.8em; fill: rgb(51, 51, 51);" y="316" opacity="1">12</text></g><g class="highcharts-axis-labels highcharts-xaxis-labels" data-z-index="7" aria-hidden="true"><text x="76" text-anchor="end" transform="translate(0,0)" style="cursor: default; font-size: 0.8em; fill: rgb(51, 51, 51);" y="94" opacity="1">r2modman</text><text x="76" text-anchor="end" transform="translate(0,0)" style="cursor: default; font-size: 0.8em; fill: rgb(51, 51, 51);" y="174" opacity="1">Gale</text><text x="76" text-anchor="end" transform="translate(0,0)" style="cursor: default; font-size: 0.8em; fill: rgb(51, 51, 51);" y="253" opacity="1">Manderrow</text></g><text x="590" class="highcharts-credits" text-anchor="end" data-z-index="8" text-align="right" y="395" style="cursor: pointer; font-size: 0.6em; fill: rgb(153, 153, 153);" aria-label="Chart credits: Highcharts.com" aria-hidden="false">Highcharts.com</text></svg>